<?xml version="1.0" standalone="no"?>
<!DOCTYPE svg PUBLIC "-//W3C//DTD SVG 20010904//EN"
 "http://www.w3.org/TR/2001/REC-SVG-20010904/DTD/svg10.dtd">
<svg version="1.0" xmlns="http://www.w3.org/2000/svg"
 width="460.000000pt" height="460.000000pt" viewBox="0 0 460.000000 460.000000"
 preserveAspectRatio="xMidYMid meet">
<metadata>
Created by potrace 1.14, written by Peter Selinger 2001-2017
</metadata>
<g transform="translate(0.000000,460.000000) scale(0.100000,-0.100000)"
fill="#000000" stroke="none">
<path d="M0 2300 l0 -2300 2300 0 2300 0 0 2300 0 2300 -2300 0 -2300 0 0
-2300z m3348 1440 c49 -22 101 -72 182 -175 30 -38 63 -78 72 -89 9 -10 28
-47 42 -82 26 -65 51 -122 88 -204 21 -48 138 -395 138 -412 0 -17 49 -118 86
-176 45 -71 94 -123 151 -159 l43 -27 0 -68 c0 -74 -3 -79 -80 -130 -19 -13
-39 -32 -45 -43 -6 -11 -18 -31 -27 -45 -29 -44 -98 -267 -118 -380 -16 -94
-55 -222 -101 -335 -4 -11 -13 -38 -20 -60 -15 -51 -50 -117 -95 -180 -41 -58
-156 -189 -198 -225 -16 -14 -40 -35 -54 -47 -36 -33 -147 -83 -182 -83 l-30
0 0 75 c0 64 3 78 21 93 12 9 86 86 165 170 125 135 150 166 195 255 31 60 58
128 65 167 7 36 24 112 37 170 13 58 28 123 32 145 15 87 60 225 106 329 27
60 49 114 49 119 0 5 -23 34 -51 65 -46 51 -116 177 -139 251 -20 61 -121 317
-139 351 -5 9 -12 31 -16 50 -4 19 -13 49 -20 65 -7 17 -25 71 -40 120 -57
185 -130 293 -225 330 l-50 19 0 90 0 89 57 -7 c31 -4 76 -15 101 -26z m-1928
-69 c0 -82 -2 -90 -21 -96 -49 -16 -198 -180 -257 -283 -74 -130 -136 -275
-172 -400 -17 -58 -47 -152 -67 -207 -19 -55 -44 -122 -53 -150 -10 -27 -35
-83 -55 -124 l-37 -73 46 -97 c25 -53 46 -101 46 -107 0 -6 6 -24 14 -40 7
-16 24 -83 36 -149 46 -246 88 -419 125 -528 40 -114 213 -320 343 -406 l62
-42 0 -79 0 -80 -32 0 c-64 1 -220 90 -329 188 -80 72 -162 198 -202 312 -43
121 -110 344 -147 485 -51 198 -68 251 -95 295 -24 37 -90 101 -124 120 -19
10 -21 20 -21 105 l0 95 42 31 c86 61 167 217 203 389 19 92 118 373 161 460
20 41 54 101 75 135 37 59 155 180 237 244 59 46 151 90 190 90 l32 1 0 -89z
m1299 -388 c59 -59 194 -234 245 -317 77 -126 105 -196 151 -376 24 -93 27
-126 28 -290 2 -242 -18 -345 -105 -530 -55 -115 -240 -373 -319 -445 l-40
-36 -107 3 c-145 4 -146 8 -9 151 242 253 338 488 339 824 0 241 -37 408 -135
613 -45 94 -207 333 -251 369 -9 7 -16 26 -16 42 l0 29 91 0 91 0 37 -37z
m-609 -78 l0 -105 -145 0 -145 0 0 -785 0 -784 158 -3 157 -3 0 -115 0 -115
-295 0 -295 0 -2 1008 -1 1007 284 0 284 0 0 -105z"/>
</g>
</svg>
